# xmcd CD database file
#
# Track frame offsets:
#	150
#	22670
#	46511
#	71353
#	92456
#	121743
#	157377
#	189851
#	220291
#	251128
#
# Disc length: 3671 seconds
#
# Revision: 0
# Processed by: cddbd v1.5.2PL0 Copyright (c) Steve Scherf et al.
# Submitted via: CDex 1.51
#
DISCID=770e550a
DTITLE=Sean Higgins - The New Thought
DYEAR=2005
DGENRE=Jazz
TTITLE0=The New Game Plan
TTITLE1=New To Me
TTITLE2=Haif The World Away
TTITLE3=Inception
TTITLE4=First Chance
TTITLE5=One For Nana
TTITLE6=Here's A Thought
TTITLE7=In Your Own Sweet Way
TTITLE8=Hidden Complexity
TTITLE9=Miscalcukation
EXTD=YEAR: 2005
EXTT0=
EXTT1=
EXTT2=
EXTT3=
EXTT4=
EXTT5=
EXTT6=
EXTT7=
EXTT8=
EXTT9=
PLAYORDER=
